Coordinates
version=1
nRows=12
nColumns=24
inDegrees=yes

Units are S.I. units (second, meters, Newtons, ...)
Angles are in degrees.

endheader
time	pelvis_tilt	pelvis_list	pelvis_rotation	pelvis_tx	pelvis_ty	pelvis_tz	hip_flexion_r	hip_adduction_r	hip_rotation_r	knee_angle_r	ankle_angle_r	subtalar_angle_r	mtp_angle_r	hip_flexion_l	hip_adduction_l	hip_rotation_l	knee_angle_l	ankle_angle_l	subtalar_angle_l	mtp_angle_l	lumbar_extension	lumbar_bending	lumbar_rotation
      0.96883333	      1.25782811	     -5.21363390	      2.10908033	     -0.29453624	      1.00427106	      0.30284821	      4.59536431	     11.48207842	      0.47872649	    -12.28300671	      4.59453869	    -17.45520238	     -2.14997830	     19.10823399	     -5.67330449	      1.36313678	    -73.08338636	     -8.21073145	    -10.58410646	      3.02323570	     -0.00503179	      8.45537677	      2.59956277
      0.97300000	      1.25106284	     -5.12429626	      1.92344450	     -0.28984963	      1.00456936	      0.30322292	      4.13967593	     11.40087076	      0.59810317	    -12.01970477	      4.69144953	    -17.19372110	     -2.13980471	     19.74066962	     -5.59108682	      1.25969425	    -72.99503645	     -7.63154516	    -10.77331735	      2.94104206	     -0.08683559	      8.35883264	      2.82602555
      0.97716667	      1.30607269	     -5.02014918	      1.74429231	     -0.28513438	      1.00494617	      0.30358857	      3.60922274	     11.29889382	      0.68576843	    -11.74010790	      4.79338427	    -16.90176472	     -2.12472357	     20.28197376	     -5.50092818	      1.14607582	    -72.84393678	     -7.05039908	    -10.92336506	      2.84878539	     -0.22293292	      8.23398172	      3.06597057
      0.98133333	      1.30253260	     -4.92113370	      1.55601221	     -0.28045628	      1.00520242	      0.30394290	      3.15955079	     11.19567908	      0.77167686	    -11.49014712	      4.90068152	    -16.58955473	     -2.10384434	     20.88336088	     -5.40891006	      1.04240412	    -72.66370525	     -6.46062246	    -11.01796985	      2.74972220	     -0.30050860	      8.12194940	      3.30873526
      0.98550000	      1.29034455	     -4.81944385	      1.37929201	     -0.27576935	      1.00543536	      0.30426670	      2.71593293	     11.08793561	      0.87042078	    -11.23126260	      4.98960270	    -16.41972853	     -2.09434787	     21.47992032	     -5.30517101	      0.95282890	    -72.43050774	     -5.90599852	    -11.17255102	      2.72937804	     -0.34953222	      8.01678748	      3.38544612
      0.98966667	      1.33172056	     -4.73676798	      1.18521611	     -0.27109224	      1.00568489	      0.30463372	      2.22460089	     10.99338548	      0.92162273	    -10.98568538	      5.10194001	    -15.98252595	     -2.06196834	     22.00540246	     -5.24781842	      0.84223262	    -72.16772207	     -5.27867819	    -11.09887278	      2.63248496	     -0.49084941	      7.90296079	      3.73311963
      0.99383333	      1.33255932	     -4.64839600	      0.97940970	     -0.26645083	      1.00586053	      0.30499574	      1.78599563	     10.89418861	      1.02908667	    -10.75653823	      5.18522376	    -15.68942766	     -2.03762328	     22.56332625	     -5.17862007	      0.72735724	    -71.86138884	     -4.68812665	    -11.10693953	      2.57777087	     -0.59160015	      7.79397946	      3.88833541
      0.99800000	      1.31171771	     -4.56679055	      0.78913655	     -0.26179369	      1.00597105	      0.30532452	      1.36993376	     10.79631184	      1.11038279	    -10.52075505	      5.28061625	    -15.38636157	     -2.01107041	     23.13618398	     -5.10835821	      0.63904784	    -71.51868274	     -4.09796808	    -11.04554199	      2.52795421	     -0.65290338	      7.69418303	      4.07649562
      1.00216667	      1.33227310	     -4.49067666	      0.61961741	     -0.25712914	      1.00611890	      0.30560483	      0.90631126	     10.69812112	      1.15480794	    -10.27336029	      5.40011258	    -15.00470045	     -1.96844367	     23.65028803	     -5.03517327	      0.57604747	    -71.12750267	     -3.52976088	    -10.90100604	      2.44750445	     -0.75670589	      7.61953694	      4.33818767
      1.00633333	      1.32711828	     -4.40731205	      0.42688946	     -0.25247806	      1.00620058	      0.30591949	      0.48282147	     10.59298746	      1.23202771	    -10.05150917	      5.49863848	    -14.67504579	     -1.92537465	     24.17542122	     -4.96684550	      0.48284115	    -70.69582544	     -2.96846169	    -10.77640362	      2.37546469	     -0.84011695	      7.51821292	      4.52810756
      1.01050000	      1.32679129	     -4.32894328	      0.23628974	     -0.24782161	      1.00627192	      0.30620485	      0.05205102	     10.48776357	      1.30458408	     -9.82068211	      5.59558211	    -14.34677236	     -1.87543697	     24.67851779	     -4.89599432	      0.40700291	    -70.21955262	     -2.42482005	    -10.61680450	      2.29826272	     -0.92134121	      7.43690049	      4.72635951
      1.01466667	      1.28893569	     -4.24919515	      0.02986938	     -0.24317906	      1.00625265	      0.30651469	     -0.32573920	     10.38347823	      1.41674576	     -9.61629248	      5.67546189	    -14.07653361	     -1.83713404	     25.20930635	     -4.83371052	      0.31128294	    -69.70673413	     -1.90393188	    -10.46285601	      2.24895419	     -0.96760283	      7.34963371	      4.86806851
